# ProBuilder 5.2.2
# https://unity3d.com/unity/features/worldbuilding/probuilder
# 21/01/2024 11:59:00

mtllib ./bigRock_03_Col.mtl
o bigRock_03_Col

g PolyShape
v -10.00166 9.386889 16.11027
v -10.55458 9.386885 16.83421
v -11.88756 9.386885 17.634
v -12.32079 9.386885 17.7673
v -13.58713 9.386886 17.38407
v -14.07033 9.386885 16.40099
v -13.65378 9.386885 14.86805
v -14.68055 9.386892 12.71563
v -12.75898 9.386889 8.350028
v -12.78733 9.386886 4.387418
v -11.83758 9.386884 3.470987
v -8.071885 9.386884 3.904209
v -7.288753 9.386886 5.537121
v -6.438972 9.386888 5.920356
v -3.489734 9.386886 6.986748
v -3.006525 9.386888 8.419711
v -4.256203 9.386886 10.66913
v -3.60637 9.386885 11.8355
v -4.089579 9.386886 13.6517
v -3.523058 9.386885 15.21796
v -3.673365 9.386887 16.22736
v -4.717091 9.386887 18.25305
v -5.239283 9.386885 18.63375
v -7.026729 9.386888 19.15374
v -8.438457 9.386885 18.33382
v -8.938328 9.386885 16.45098
v -4.08958 -0.613113 13.6517
v -3.523059 -0.6131139 15.21796
v -3.673366 -0.6131119 16.22736
v -8.438457 -0.6131141 18.33382
v -5.239284 -0.6131141 18.63375
v -7.02673 -0.6131117 19.15374
v -8.938329 -0.6131135 16.45098
v -4.717092 -0.6131117 18.25305
v -4.256204 -0.6131136 10.66913
v -3.606371 -0.6131137 11.8355
v -10.00166 -0.6131104 16.11027
v -14.07034 -0.6131135 16.40099
v -12.32079 -0.6131142 17.7673
v -13.58713 -0.6131134 17.38407
v -11.88757 -0.6131142 17.634
v -13.65378 -0.6131138 14.86805
v -10.55458 -0.6131135 16.83421
v -14.68056 -0.6131058 12.71563
v -12.75899 -0.6131104 8.350029
v -8.071885 -0.6131149 3.90421
v -7.288754 -0.6131134 5.537123
v -11.83758 -0.6131149 3.470988
v -12.78733 -0.6131133 4.38742
v -6.438973 -0.6131118 5.920358
v -3.489735 -0.6131135 6.98675
v -3.006526 -0.6131119 8.419712

vt -1.045499 -2.939495
vt -0.4925852 -2.215554
vt 0.8404035 -1.41576
vt 1.273625 -1.282459
vt 2.539965 -1.665695
vt 3.023173 -2.648774
vt 2.606615 -4.181714
vt 3.633393 -6.334132
vt 1.711823 -10.69973
vt 1.740172 -14.66234
vt 0.7904175 -15.57877
vt -2.975277 -15.14555
vt -3.758408 -13.51264
vt -4.60819 -13.12941
vt -7.557428 -12.06301
vt -8.040637 -10.63005
vt -6.790959 -8.38063
vt -7.440792 -7.214263
vt -6.957583 -5.398065
vt -7.524104 -3.831801
vt -7.373797 -2.822402
vt -6.330071 -0.7967089
vt -5.807879 -0.4160157
vt -4.020433 0.1039754
vt -2.608705 -0.7159387
vt -2.108833 -2.598786
vt 6.957582 -5.398065
vt 7.524103 -3.831801
vt 7.373797 -2.822402
vt 2.608705 -0.7159388
vt 5.807878 -0.4160158
vt 4.020432 0.1039753
vt 2.108833 -2.598786
vt 6.33007 -0.7967091
vt 6.790959 -8.38063
vt 7.440791 -7.214263
vt 1.045499 -2.939495
vt -3.023173 -2.648774
vt -1.273625 -1.282459
vt -2.539965 -1.665695
vt -0.8404037 -1.41576
vt -2.606615 -4.181714
vt 0.492585 -2.215554
vt -3.633393 -6.334132
vt -1.711823 -10.69973
vt 2.975277 -15.14555
vt 3.758408 -13.51264
vt -0.7904177 -15.57877
vt -1.740173 -14.66234
vt 4.608189 -13.12941
vt 7.557428 -12.06301
vt 8.040637 -10.63005
vt 2.709687 1.681688E-06
vt 1.044116 8.873189E-07
vt 2.709687 10
vt 1.044116 10
vt 4.898183 5.763018E-07
vt 3.877654 2.562225E-06
vt 4.898184 10
vt 3.877655 10
vt 5.692899 -9.055863E-08
vt 3.831352 2.354609E-06
vt 5.6929 10
vt 3.831354 10
vt 3.52883 2.592334E-06
vt 1.896275 9.751845E-08
vt 3.52883 10
vt 1.896275 10
vt -0.02257966 1.290798E-07
vt -1.970652 6.255606E-07
vt -0.02258005 10
vt -1.970652 10
vt 5.58442 2.308545E-06
vt 4.938191 -2.491429E-08
vt 5.584421 10
vt 4.938192 10
vt 5.886308 2.259638E-06
vt 3.607537 2.557526E-06
vt 5.886309 10
vt 3.607538 10
vt 4.015879 1.298712E-06
vt 2.680704 1.298712E-06
vt 4.01588 10
vt 2.680704 10
vt 8.884841 4.263363E-07
vt 7.005462 1.220705E-06
vt 8.884842 10
vt 7.005463 10
vt 1.215282 6.776449E-07
vt 0.09869688 3.855122E-06
vt 1.215283 10
vt 0.09869734 10
vt -1.590501 -1.31824E-07
vt -2.91356 6.625452E-07
vt -1.5905 10
vt -2.91356 10
vt -2.615302 4.560056E-07
vt -3.710717 2.574133E-07
vt -2.615302 10
vt -3.710717 10
vt -0.3868792 -1.438923E-07
vt -0.8401454 -1.438923E-07
vt -0.3868783 10
vt -0.8401445 10
vt -1.763319 2.156237E-07
vt -3.351848 -1.815609E-07
vt -1.76332 10
vt -3.351849 10
vt 1.562282 4.350511E-07
vt 0.007762851 -1.607258E-07
vt 1.562283 10
vt 0.007763822 10
vt 2.970671 3.561859E-06
vt 2.059736 3.843827E-07
vt 2.970672 10
vt 2.059737 10
vt -4.896557 -4.698339E-08
vt -7.281337 7.896708E-06
vt -4.896557 10
vt -7.281337 10.00001
vt -4.333624 7.67184E-06
vt -9.103415 2.905625E-06
vt -4.333624 10.00001
vt -9.103416 10
vt 12.36963 -6.126056E-07
vt 10.55864 9.761327E-07
vt 12.36963 9.999999
vt 10.55864 10
vt 2.565744 5.264123E-09
vt -1.224788 5.264126E-09
vt 2.565744 10
vt -1.224789 10
vt -8.928826 2.229973E-07
vt -10.24863 -1.365741E-06
vt -8.928827 10
vt -10.24863 9.999998
vt -10.71171 3.059403E-06
vt -14.67442 -1.180737E-07
vt -10.71171 10
vt -14.67442 10
vt 2.129043 1.612834E-06
vt 1.196843 3.201572E-06
vt 2.129043 10
vt 1.196843 10
vt 0.130876 3.287821E-06
vt -3.005236 1.699082E-06
vt 0.1308755 10
vt -3.005237 10
vt 9.015777 1.331152E-06
vt 7.503536 2.91989E-06
vt 9.015778 10
vt 7.503537 10
vt 13.19721 1.65789E-06
vt 10.62397 6.915216E-08
vt 13.19722 10
vt 10.62397 10

vn -9.222017E-08 0.9999999 1.93618E-06
vn -1.207543E-06 -0.9999999 5.869551E-07
vn 0.9403762 -8.88063E-08 -0.3401361
vn 0.9890944 -9.119475E-08 0.1472826
vn 0.2793329 -1.480122E-08 0.9601943
vn -0.5022276 5.855729E-08 0.8647354
vn -0.9665182 7.152958E-08 0.256598
vn 0.5890996 -4.862672E-08 0.8080603
vn 0.888941 -7.503413E-08 0.4580217
vn 0.8735681 -1.052657E-07 -0.4867018
vn 0.9663819 -9.282275E-08 0.2571108
vn -0.3051345 4.208005E-08 0.9523093
vn -0.2896588 2.966579E-08 0.95713
vn -0.8974488 6.831436E-08 0.4411185
vn 0.2940894 -1.385268E-08 0.9557779
vn -0.9650056 6.344511E-08 -0.2622288
vn 0.5144959 -2.009451E-08 0.8574928
vn 0.7947221 -4.393294E-08 0.6069735
vn -0.9025644 6.344889E-08 0.4305547
vn -0.9152606 6.650085E-08 -0.4028624
vn 0.9016665 -8.399979E-08 -0.432432
vn 0.1142905 -5.367166E-08 -0.9934474
vn -0.6943696 1.720223E-08 -0.7196184
vn -0.9999744 7.184646E-08 0.007153952
vn 0.4111082 -7.052764E-08 -0.9115865
vn 0.3400362 -7.485163E-08 -0.9404123
vn 0.9475754 -1.047823E-07 -0.3195319
vn 0.8741572 -6.145813E-08 0.4856429

usemtl Lit
f 21/21/1 20/20/1 19/19/1
f 24/24/1 23/23/1 25/25/1
f 25/25/1 23/23/1 26/26/1
f 26/26/1 23/23/1 22/22/1
f 22/22/1 21/21/1 26/26/1
f 19/19/1 26/26/1 21/21/1
f 19/19/1 18/18/1 17/17/1
f 26/26/1 19/19/1 17/17/1
f 17/17/1 1/1/1 26/26/1
f 5/5/1 4/4/1 6/6/1
f 6/6/1 4/4/1 3/3/1
f 7/7/1 6/6/1 3/3/1
f 7/7/1 3/3/1 2/2/1
f 2/2/1 1/1/1 7/7/1
f 7/7/1 1/1/1 8/8/1
f 8/8/1 1/1/1 9/9/1
f 1/1/1 17/17/1 9/9/1
f 11/11/1 13/13/1 12/12/1
f 11/11/1 10/10/1 13/13/1
f 9/9/1 13/13/1 10/10/1
f 9/9/1 14/14/1 13/13/1
f 9/9/1 17/17/1 14/14/1
f 17/17/1 15/15/1 14/14/1
f 16/16/1 15/15/1 17/17/1
f 35/35/2 51/51/2 52/52/2
f 50/50/2 51/51/2 35/35/2
f 50/50/2 35/35/2 45/45/2
f 47/47/2 50/50/2 45/45/2
f 49/49/2 47/47/2 45/45/2
f 47/47/2 49/49/2 48/48/2
f 46/46/2 47/47/2 48/48/2
f 45/45/2 35/35/2 37/37/2
f 45/45/2 37/37/2 44/44/2
f 44/44/2 37/37/2 42/42/2
f 42/42/2 37/37/2 43/43/2
f 43/43/2 41/41/2 42/42/2
f 41/41/2 38/38/2 42/42/2
f 41/41/2 39/39/2 38/38/2
f 38/38/2 39/39/2 40/40/2
f 33/33/2 37/37/2 35/35/2
f 35/35/2 27/27/2 33/33/2
f 35/35/2 36/36/2 27/27/2
f 29/29/2 33/33/2 27/27/2
f 33/33/2 29/29/2 34/34/2
f 34/34/2 31/31/2 33/33/2
f 33/33/2 31/31/2 30/30/2
f 30/30/2 31/31/2 32/32/2
f 27/27/2 28/28/2 29/29/2
f 20/56/3 28/54/3 27/53/3
f 27/53/3 19/55/3 20/56/3
f 21/60/4 29/58/4 28/57/4
f 28/57/4 20/59/4 21/60/4
f 24/64/5 32/62/5 31/61/5
f 31/61/5 23/63/5 24/64/5
f 25/68/6 30/66/6 32/65/6
f 32/65/6 24/67/6 25/68/6
f 26/72/7 33/70/7 30/69/7
f 30/69/7 25/71/7 26/72/7
f 23/76/8 31/74/8 34/73/8
f 34/73/8 22/75/8 23/76/8
f 22/80/9 34/78/9 29/77/9
f 29/77/9 21/79/9 22/80/9
f 18/84/10 36/82/10 35/81/10
f 35/81/10 17/83/10 18/84/10
f 19/88/11 27/86/11 36/85/11
f 36/85/11 18/87/11 19/88/11
f 1/92/12 37/90/12 33/89/12
f 33/89/12 26/91/12 1/92/12
f 5/96/13 40/94/13 39/93/13
f 39/93/13 4/95/13 5/96/13
f 6/100/14 38/98/14 40/97/14
f 40/97/14 5/99/14 6/100/14
f 4/104/15 39/102/15 41/101/15
f 41/101/15 3/103/15 4/104/15
f 7/108/16 42/106/16 38/105/16
f 38/105/16 6/107/16 7/108/16
f 3/112/17 41/110/17 43/109/17
f 43/109/17 2/111/17 3/112/17
f 2/116/18 43/114/18 37/113/18
f 37/113/18 1/115/18 2/116/18
f 8/120/19 44/118/19 42/117/19
f 42/117/19 7/119/19 8/120/19
f 9/124/20 45/122/20 44/121/20
f 44/121/20 8/123/20 9/124/20
f 13/128/21 47/126/21 46/125/21
f 46/125/21 12/127/21 13/128/21
f 12/132/22 46/130/22 48/129/22
f 48/129/22 11/131/22 12/132/22
f 11/136/23 48/134/23 49/133/23
f 49/133/23 10/135/23 11/136/23
f 10/140/24 49/138/24 45/137/24
f 45/137/24 9/139/24 10/140/24
f 14/144/25 50/142/25 47/141/25
f 47/141/25 13/143/25 14/144/25
f 15/148/26 51/146/26 50/145/26
f 50/145/26 14/147/26 15/148/26
f 16/152/27 52/150/27 51/149/27
f 51/149/27 15/151/27 16/152/27
f 17/156/28 35/154/28 52/153/28
f 52/153/28 16/155/28 17/156/28

